<?xml version="1.0" standalone="no"?><!DOCTYPE svg PUBLIC "-//W3C//DTD SVG 1.1//EN" "http://www.w3.org/Graphics/SVG/1.1/DTD/svg11.dtd"><svg t="1729059159846" class="icon" viewBox="0 0 1024 1024" version="1.1" xmlns="http://www.w3.org/2000/svg" p-id="13735" xmlns:xlink="http://www.w3.org/1999/xlink" width="200" height="200"><path d="M308.224 285.184h409.6v54.784h-409.6z" fill="#33C5FF" p-id="13736"></path><path d="M721.408 381.952h-48.64v-14.848h45.056c3.072 0 5.12-2.56 5.12-5.12 0-3.072-2.56-5.12-5.12-5.12H308.736c-3.072 0-5.12 2.56-5.12 5.12 0 3.072 2.56 5.12 5.12 5.12h46.592v14.848h-50.176c-3.072 0-5.12 2.56-5.12 5.12 0 3.072 2.56 5.12 5.12 5.12h415.744c3.072 0 5.12-2.56 5.12-5.12 0.512-2.56-2.048-5.12-4.608-5.12z m-59.392 0h-40.448v-14.848h40.448v14.848z m-193.536-14.848h40.448v14.848h-40.448v-14.848z m-10.752 14.848h-40.448v-14.848h40.448v14.848z m61.44-14.848h40.448v14.848h-40.448v-14.848z m51.2 0h40.448v14.848h-40.448v-14.848z m-204.288 0h40.448v14.848h-40.448v-14.848z" fill="#BB32FF" p-id="13737"></path><path d="M307.712 743.424h-189.44v102.4H322.56v-102.4z" fill="#5F4DFE" p-id="13738"></path><path d="M750.08 229.376l50.688-94.72c1.024-1.536 2.56-3.072 4.608-3.072s3.584 1.024 4.608 3.072L860.16 230.4c1.536 2.56 0.512 5.632-2.048 7.168-1.024 0.512-1.536 0.512-2.56 0.512-2.048 0-3.584-1.024-4.608-3.072l18.432 51.2-63.488 25.088-48.128-23.552 2.048-54.272c-1.536 2.56-4.608 3.584-7.168 2.048-3.072-0.512-4.096-3.584-2.56-6.144z" fill="#FC708A" p-id="13739"></path><path d="M762.88 309.76h87.04c3.072 0 5.12-2.56 5.12-5.12 0-3.072-2.56-5.12-5.12-5.12h-87.04c-3.072 0-5.12 2.56-5.12 5.12s2.56 5.12 5.12 5.12z" fill="#FFFFFF" p-id="13740"></path><path d="M844.8 273.408v56.32h12.8v384.512h-104.448V329.728h12.8v-56.32M765.952 248.32l35.328-45.056c2.048-3.072 7.168-3.072 9.216 0l34.816 45.568" fill="#FC708A" p-id="13741"></path><path d="M827.904 475.136c3.072 0 5.12-2.56 5.12-5.12v-25.6c0-3.072-2.56-5.12-5.12-5.12-3.072 0-5.12 2.56-5.12 5.12v25.6c0 2.56 2.56 5.12 5.12 5.12zM805.888 475.136c3.072 0 5.12-2.56 5.12-5.12v-25.6c0-3.072-2.56-5.12-5.12-5.12-3.072 0-5.12 2.56-5.12 5.12v25.6c-0.512 2.56 2.048 5.12 5.12 5.12zM783.36 475.136c3.072 0 5.12-2.56 5.12-5.12v-25.6c0-3.072-2.56-5.12-5.12-5.12-3.072 0-5.12 2.56-5.12 5.12v25.6c0 2.56 2.048 5.12 5.12 5.12zM827.904 348.16c3.072 0 5.12-2.56 5.12-5.12v-25.6c0-3.072-2.56-5.12-5.12-5.12-3.072 0-5.12 2.56-5.12 5.12v25.6c0 2.56 2.56 5.12 5.12 5.12zM805.888 348.16c3.072 0 5.12-2.56 5.12-5.12v-25.6c0-3.072-2.56-5.12-5.12-5.12-3.072 0-5.12 2.56-5.12 5.12v25.6c-0.512 2.56 2.048 5.12 5.12 5.12zM783.36 348.16c3.072 0 5.12-2.56 5.12-5.12v-25.6c0-3.072-2.56-5.12-5.12-5.12-3.072 0-5.12 2.56-5.12 5.12v25.6c0 2.56 2.048 5.12 5.12 5.12zM827.904 571.904c3.072 0 5.12-2.56 5.12-5.12v-25.6c0-3.072-2.56-5.12-5.12-5.12-3.072 0-5.12 2.56-5.12 5.12v25.6c0 2.56 2.56 5.12 5.12 5.12zM805.888 571.904c3.072 0 5.12-2.56 5.12-5.12v-25.6c0-3.072-2.56-5.12-5.12-5.12-3.072 0-5.12 2.56-5.12 5.12v25.6c-0.512 2.56 2.048 5.12 5.12 5.12zM783.36 571.904c3.072 0 5.12-2.56 5.12-5.12v-25.6c0-3.072-2.56-5.12-5.12-5.12-3.072 0-5.12 2.56-5.12 5.12v25.6c0 2.56 2.048 5.12 5.12 5.12zM827.904 675.328c3.072 0 5.12-2.56 5.12-5.12v-25.6c0-3.072-2.56-5.12-5.12-5.12-3.072 0-5.12 2.56-5.12 5.12v25.6c0 2.56 2.56 5.12 5.12 5.12zM805.888 675.328c3.072 0 5.12-2.56 5.12-5.12v-25.6c0-3.072-2.56-5.12-5.12-5.12-3.072 0-5.12 2.56-5.12 5.12v25.6c-0.512 2.56 2.048 5.12 5.12 5.12zM783.36 675.328c3.072 0 5.12-2.56 5.12-5.12v-25.6c0-3.072-2.56-5.12-5.12-5.12-3.072 0-5.12 2.56-5.12 5.12v25.6c0 2.56 2.048 5.12 5.12 5.12z" fill="#FFFFFF" p-id="13742"></path><path d="M850.944 399.36l-6.144-25.088V249.856c0-3.072 2.56-5.12 5.12-5.12h38.4c3.072 0 5.12 2.56 5.12 5.12v124.416l-6.144 25.088v314.88h-36.352V399.36zM723.456 399.36l-6.144-25.088V249.856c0-3.072 2.56-5.12 5.12-5.12h38.4c3.072 0 5.12 2.56 5.12 5.12v124.416l-6.144 25.088v314.88h-36.352V399.36z" fill="#FFB634" p-id="13743"></path><path d="M723.456 743.424h189.44v102.4h-204.288v-102.4z" fill="#5F4DFE" p-id="13744"></path><path d="M844.8 250.368c0-1.024 0-2.048 0.512-2.56l18.944-58.368c0.512-2.048 2.56-3.584 5.12-3.584s4.608 1.536 5.12 3.584l18.944 59.392c0.512 1.536 0 3.584-0.512 4.608-1.024 1.536-2.56 2.048-4.096 2.048H849.92c-3.072 0-5.12-2.56-5.12-5.12zM716.8 250.368c0-1.024 0-2.048 0.512-2.56l18.944-58.368c0.512-2.048 2.56-3.584 5.12-3.584s4.608 1.536 5.12 3.584l18.944 59.392c0.512 1.536 0 3.584-1.024 4.608-1.024 1.536-2.56 2.048-4.096 2.048H721.92c-2.56 0-5.12-2.56-5.12-5.12zM723.456 499.2h163.84v14.848h-163.84zM723.456 599.552h163.84v14.848h-163.84zM723.456 399.36h163.84v14.848h-163.84z" fill="#BB32FF" p-id="13745"></path><path d="M0 714.24h1024v15.872H0z" fill="#FC708A" p-id="13746"></path><path d="M322.56 719.36v86.528c43.52-32.256 115.712-51.712 193.024-51.712 77.312 0 149.504 19.456 193.024 51.712v-86.528H322.56zM168.96 229.376l50.688-94.72c1.024-1.536 2.56-3.072 4.608-3.072s3.584 1.024 4.608 3.072L279.04 230.4c1.536 2.56 0.512 5.632-2.048 7.168-1.024 0.512-1.536 0.512-2.56 0.512-2.048 0-3.584-1.024-4.608-3.072l18.432 51.2-63.488 25.088-48.128-23.552 2.048-54.272c-1.536 2.56-4.608 3.584-7.168 2.048-3.072-0.512-4.096-3.584-2.56-6.144z" fill="#FC708A" p-id="13747"></path><path d="M181.76 309.76h87.04c3.072 0 5.12-2.56 5.12-5.12 0-3.072-2.56-5.12-5.12-5.12h-87.04c-3.072 0-5.12 2.56-5.12 5.12s2.048 5.12 5.12 5.12z" fill="#FFFFFF" p-id="13748"></path><path d="M263.68 273.408v56.32h12.288v384.512H172.032V329.728h12.8v-56.32M184.32 248.32l35.328-45.056c2.048-3.072 7.168-3.072 9.216 0l34.816 45.568" fill="#FC708A" p-id="13749"></path><path d="M246.784 475.136c3.072 0 5.12-2.56 5.12-5.12v-25.6c0-3.072-2.56-5.12-5.12-5.12-3.072 0-5.12 2.56-5.12 5.12v25.6c0 2.56 2.048 5.12 5.12 5.12zM224.768 475.136c3.072 0 5.12-2.56 5.12-5.12v-25.6c0-3.072-2.56-5.12-5.12-5.12-3.072 0-5.12 2.56-5.12 5.12v25.6c-0.512 2.56 2.048 5.12 5.12 5.12zM202.24 475.136c3.072 0 5.12-2.56 5.12-5.12v-25.6c0-3.072-2.56-5.12-5.12-5.12-3.072 0-5.12 2.56-5.12 5.12v25.6c-0.512 2.56 2.048 5.12 5.12 5.12zM246.784 348.16c3.072 0 5.12-2.56 5.12-5.12v-25.6c0-3.072-2.56-5.12-5.12-5.12-3.072 0-5.12 2.56-5.12 5.12v25.6c0 2.56 2.048 5.12 5.12 5.12zM224.768 348.16c3.072 0 5.12-2.56 5.12-5.12v-25.6c0-3.072-2.56-5.12-5.12-5.12-3.072 0-5.12 2.56-5.12 5.12v25.6c-0.512 2.56 2.048 5.12 5.12 5.12zM202.24 348.16c3.072 0 5.12-2.56 5.12-5.12v-25.6c0-3.072-2.56-5.12-5.12-5.12-3.072 0-5.12 2.56-5.12 5.12v25.6c-0.512 2.56 2.048 5.12 5.12 5.12zM246.784 571.904c3.072 0 5.12-2.56 5.12-5.12v-25.6c0-3.072-2.56-5.12-5.12-5.12-3.072 0-5.12 2.56-5.12 5.12v25.6c0 2.56 2.048 5.12 5.12 5.12zM224.768 571.904c3.072 0 5.12-2.56 5.12-5.12v-25.6c0-3.072-2.56-5.12-5.12-5.12-3.072 0-5.12 2.56-5.12 5.12v25.6c-0.512 2.56 2.048 5.12 5.12 5.12zM202.24 571.904c3.072 0 5.12-2.56 5.12-5.12v-25.6c0-3.072-2.56-5.12-5.12-5.12-3.072 0-5.12 2.56-5.12 5.12v25.6c-0.512 2.56 2.048 5.12 5.12 5.12z" fill="#FFFFFF" p-id="13750"></path><path d="M246.784 675.328c3.072 0 5.12-2.56 5.12-5.12v-25.6c0-3.072-2.56-5.12-5.12-5.12-3.072 0-5.12 2.56-5.12 5.12v25.6c0 2.56 2.048 5.12 5.12 5.12zM224.768 675.328c3.072 0 5.12-2.56 5.12-5.12v-25.6c0-3.072-2.56-5.12-5.12-5.12-3.072 0-5.12 2.56-5.12 5.12v25.6c-0.512 2.56 2.048 5.12 5.12 5.12zM202.24 675.328c3.072 0 5.12-2.56 5.12-5.12v-25.6c0-3.072-2.56-5.12-5.12-5.12-3.072 0-5.12 2.56-5.12 5.12v25.6c-0.512 2.56 2.048 5.12 5.12 5.12z" fill="#FFFFFF" p-id="13751"></path><path d="M269.824 399.36l-6.144-25.088V249.856c0-3.072 2.56-5.12 5.12-5.12H307.2c3.072 0 5.12 2.56 5.12 5.12v124.416L306.176 399.36v314.88h-36.352V399.36zM142.336 399.36l-6.144-25.088V249.856c0-3.072 2.56-5.12 5.12-5.12H179.2c3.072 0 5.12 2.56 5.12 5.12v124.416L178.176 399.36v314.88h-36.352V399.36z" fill="#FFB634" p-id="13752"></path><path d="M263.168 250.368c0-1.024 0-2.048 0.512-2.56L282.624 189.44c0.512-2.048 2.56-3.584 5.12-3.584s4.608 1.536 5.12 3.584L312.32 248.32c0.512 1.536 0 3.584-0.512 4.608-1.024 1.536-2.56 2.048-4.096 2.048h-38.4c-3.584 0.512-6.144-2.048-6.144-4.608z" fill="#BB32FF" p-id="13753"></path><path d="M135.68 250.368c0-1.024 0-2.048 0.512-2.56L155.136 189.44c0.512-2.048 2.56-3.584 5.12-3.584s4.608 1.536 5.12 3.584L184.32 248.32c0.512 1.536 0 3.584-1.024 4.608-1.024 1.536-2.56 2.048-4.096 2.048h-38.4c-2.56 0.512-5.12-2.048-5.12-4.608z" fill="#BB32FF" p-id="13754"></path><path d="M142.336 499.2h163.84v14.848h-163.84zM142.336 599.552h163.84v14.848h-163.84zM142.336 399.36h163.84v14.848h-163.84z" fill="#BB32FF" p-id="13755"></path><path d="M307.712 714.24h-189.44v29.184H322.56v-29.184zM723.456 714.24h189.44v29.184h-204.288v-29.184z" fill="#2F2960" p-id="13756"></path><path d="M150.016 401.92c-3.072-1.024-5.632 0.512-6.656 3.584-0.512 1.536-37.376 115.2-143.36 179.2v12.288c114.176-65.536 153.088-186.88 153.6-188.416 1.024-2.56-0.512-5.632-3.584-6.656zM1024 580.608c-100.864-64.512-135.68-173.056-136.192-175.104-1.024-2.56-4.096-4.608-6.656-3.584-2.56 1.024-4.608 4.096-3.584 6.656 0.512 1.536 37.888 117.76 146.432 184.32v-12.288z" fill="#FC708A" p-id="13757"></path></svg>